<svg width="14" height="18" viewBox="0 0 14 18" fill="none" xmlns="http://www.w3.org/2000/svg">
<path d="M7 18C5.73694 16.9226 4.56619 15.7415 3.5 14.469C1.9 12.558 8.78894e-07 9.71197 8.78894e-07 6.99997C-0.00069302 5.61493 0.409509 4.26082 1.17869 3.109C1.94788 1.95718 3.04147 1.05943 4.32107 0.529368C5.60067 -0.000693321 7.00875 -0.13924 8.36712 0.131262C9.72548 0.401763 10.9731 1.06915 11.952 2.04897C12.6038 2.69783 13.1203 3.46951 13.4719 4.31934C13.8234 5.16918 14.0029 6.0803 14 6.99997C14 9.71197 12.1 12.558 10.5 14.469C9.4338 15.7415 8.26306 16.9226 7 18ZM7 3.99997C6.20435 3.99997 5.44129 4.31604 4.87868 4.87865C4.31607 5.44126 4 6.20432 4 6.99997C4 7.79562 4.31607 8.55868 4.87868 9.12129C5.44129 9.6839 6.20435 9.99997 7 9.99997C7.79565 9.99997 8.55871 9.6839 9.12132 9.12129C9.68393 8.55868 10 7.79562 10 6.99997C10 6.20432 9.68393 5.44126 9.12132 4.87865C8.55871 4.31604 7.79565 3.99997 7 3.99997Z" fill="#EC1B2E"/>
</svg>
